<mxfile host="Electron" modified="2024-02-15T00:02:05.599Z" agent="Mozilla/5.0 (Windows NT 10.0; Win64; x64) AppleWebKit/537.36 (KHTML, like Gecko) draw.io/23.0.2 Chrome/120.0.6099.109 Electron/28.1.0 Safari/537.36" etag="VPd32h6QswfL5yJj6RA3" version="23.0.2" type="device">
  <diagram name="Page-1" id="QeOInz4fCezsN8UQuIfT">
    <mxGraphModel dx="1185" dy="688" grid="1" gridSize="10" guides="1" tooltips="1" connect="1" arrows="1" fold="1" page="1" pageScale="1" pageWidth="850" pageHeight="1100" math="0" shadow="0">
      <root>
        <mxCell id="0" />
        <mxCell id="1" parent="0" />
        <mxCell id="o_bpRiL6lVHrsz840EUt-1" value="PlaceableManager" style="swimlane;fontStyle=1;align=center;verticalAlign=top;childLayout=stackLayout;horizontal=1;startSize=26;horizontalStack=0;resizeParent=1;resizeParentMax=0;resizeLast=0;collapsible=1;marginBottom=0;whiteSpace=wrap;html=1;" vertex="1" parent="1">
          <mxGeometry x="180" y="20" width="235" height="180" as="geometry" />
        </mxCell>
        <mxCell id="o_bpRiL6lVHrsz840EUt-2" value="PlaceablesPool : TArray&amp;lt;Placeables*&amp;gt;" style="text;strokeColor=none;fillColor=none;align=left;verticalAlign=top;spacingLeft=4;spacingRight=4;overflow=hidden;rotatable=0;points=[[0,0.5],[1,0.5]];portConstraint=eastwest;whiteSpace=wrap;html=1;" vertex="1" parent="o_bpRiL6lVHrsz840EUt-1">
          <mxGeometry y="26" width="235" height="26" as="geometry" />
        </mxCell>
        <mxCell id="o_bpRiL6lVHrsz840EUt-3" value="" style="line;strokeWidth=1;fillColor=none;align=left;verticalAlign=middle;spacingTop=-1;spacingLeft=3;spacingRight=3;rotatable=0;labelPosition=right;points=[];portConstraint=eastwest;strokeColor=inherit;" vertex="1" parent="o_bpRiL6lVHrsz840EUt-1">
          <mxGeometry y="52" width="235" height="8" as="geometry" />
        </mxCell>
        <mxCell id="o_bpRiL6lVHrsz840EUt-4" value="SpawnPlaceable(Transform, Placeable)&lt;br&gt;RemovePlaceableFromPool(Placeable*)&lt;br&gt;AddPlaceableToPool(Placeable*)&lt;br&gt;CleanPool()" style="text;strokeColor=none;fillColor=none;align=left;verticalAlign=top;spacingLeft=4;spacingRight=4;overflow=hidden;rotatable=0;points=[[0,0.5],[1,0.5]];portConstraint=eastwest;whiteSpace=wrap;html=1;" vertex="1" parent="o_bpRiL6lVHrsz840EUt-1">
          <mxGeometry y="60" width="235" height="60" as="geometry" />
        </mxCell>
        <mxCell id="o_bpRiL6lVHrsz840EUt-5" value="" style="line;strokeWidth=1;fillColor=none;align=left;verticalAlign=middle;spacingTop=-1;spacingLeft=3;spacingRight=3;rotatable=0;labelPosition=right;points=[];portConstraint=eastwest;strokeColor=inherit;" vertex="1" parent="o_bpRiL6lVHrsz840EUt-1">
          <mxGeometry y="120" width="235" height="8" as="geometry" />
        </mxCell>
        <mxCell id="o_bpRiL6lVHrsz840EUt-6" value="&lt;b&gt;Blueprint Implementation&lt;/b&gt;" style="text;strokeColor=none;fillColor=none;align=center;verticalAlign=top;spacingLeft=4;spacingRight=4;overflow=hidden;rotatable=0;points=[[0,0.5],[1,0.5]];portConstraint=eastwest;whiteSpace=wrap;html=1;" vertex="1" parent="o_bpRiL6lVHrsz840EUt-1">
          <mxGeometry y="128" width="235" height="26" as="geometry" />
        </mxCell>
        <mxCell id="o_bpRiL6lVHrsz840EUt-7" value="Nothing yet..." style="text;strokeColor=none;fillColor=none;align=left;verticalAlign=top;spacingLeft=4;spacingRight=4;overflow=hidden;rotatable=0;points=[[0,0.5],[1,0.5]];portConstraint=eastwest;whiteSpace=wrap;html=1;" vertex="1" parent="o_bpRiL6lVHrsz840EUt-1">
          <mxGeometry y="154" width="235" height="26" as="geometry" />
        </mxCell>
        <mxCell id="o_bpRiL6lVHrsz840EUt-15" value="" style="edgeStyle=orthogonalEdgeStyle;rounded=0;orthogonalLoop=1;jettySize=auto;html=1;" edge="1" parent="1" source="o_bpRiL6lVHrsz840EUt-11" target="o_bpRiL6lVHrsz840EUt-6">
          <mxGeometry relative="1" as="geometry" />
        </mxCell>
        <mxCell id="o_bpRiL6lVHrsz840EUt-11" value="&lt;span style=&quot;font-weight: normal;&quot;&gt;Placeable&lt;/span&gt;" style="whiteSpace=wrap;html=1;verticalAlign=top;fontStyle=1;startSize=26;" vertex="1" parent="1">
          <mxGeometry x="512.5" y="87.75" width="117.5" height="30.5" as="geometry" />
        </mxCell>
        <mxCell id="o_bpRiL6lVHrsz840EUt-13" value="Bind to Manager for when it dies" style="text;html=1;strokeColor=none;fillColor=none;align=center;verticalAlign=middle;whiteSpace=wrap;rounded=0;" vertex="1" parent="1">
          <mxGeometry x="422.5" y="110" width="90" height="49" as="geometry" />
        </mxCell>
      </root>
    </mxGraphModel>
  </diagram>
</mxfile>
